#!OML:ASF H:\MichaelJackson\Top Level 1\Subject 1\Session 1\male.ASF
:FULLY-SPECIFIED
:DEGREES
830
root 2.81536 13.2837 22.692 26.6629 65.3261 -1.40921
lowerback 37.4328 -1.40524 0.100023
upperback 14.1892 -0.811233 -6.50051
thorax -3.10402 0.401258 -6.65665
lowerneck -8.41316 -5.559 -2.40041
upperneck -1.37067 -6.95238 -6.61733
head 0.82345 -3.50168 -1.88944
rclavicle -1.82882e-014 8.15017e-015
rhumerus -45.9073 45.5124 -56.6867
rradius 105.055
rwrist -40.5183
rhand -29.3418 -37.55
rfingers 7.12502
rthumb -2.6818 -427.513
lclavicle -1.82882e-014 8.15017e-015
lhumerus -20.8266 22.1646 71.8931
lradius 47.6772
lwrist 16.9579
lhand -32.6317 9.35569
lfingers 7.12502
lthumb -5.85868 39.2547
rfemur -84.6764 0.379863 28.9503
rtibia 93.016
rfoot -21.7617 20.3318
rtoes 42.913
lfemur -73.0348 24.9208 -3.67716
ltibia 78.0329
lfoot -11.9188 20.6052
ltoes 53.4072
831
root 2.81012 13.3042 22.763 25.9401 65.4121 -2.14915
lowerback 37.5935 -1.29149 0.31491
upperback 14.2142 -0.594948 -6.40673
thorax -3.10601 0.510951 -6.74759
lowerneck -8.38683 -5.61334 -2.28258
upperneck -1.32232 -7.04019 -6.51146
head 0.831763 -3.54746 -1.87814
rclavicle 1.03368e-014 -1.86858e-014
rhumerus -46.3322 45.2033 -57.2058
rradius 105.006
rwrist -40.3852
rhand -29.3489 -37.4056
rfingers 7.12502
rthumb -2.68866 -427.368
lclavicle 1.03368e-014 -1.86858e-014
lhumerus -20.6611 21.8542 71.9823
lradius 47.7781
lwrist 17.0267
lhand -32.5112 9.37678
lfingers 7.12502
lthumb -5.74234 39.279
rfemur -84.2857 1.11688 29.0149
rtibia 92.7277
rfoot -21.4423 20.5752
rtoes 43.4639
lfemur -75.4071 24.6219 -5.07283
ltibia 79.3364
lfoot -11.911 20.675
ltoes 53.3421
832
root 2.806 13.3215 22.8338 25.2259 65.4648 -2.89327
lowerback 37.7174 -1.15439 0.600667
upperback 14.2294 -0.332434 -6.37355
thorax -3.10414 0.647387 -6.95787
lowerneck -8.30522 -5.70124 -1.97584
upperneck -1.27206 -7.19497 -6.45414
head 0.821586 -3.62781 -1.91389
rclavicle -4.77083e-015 3.12092e-014
rhumerus -46.9478 44.7612 -57.9482
rradius 104.941
rwrist -40.2512
rhand -29.3234 -37.2323
rfingers 7.12502
rthumb -2.66404 -427.195
lclavicle -4.77083e-015 3.12092e-014
lhumerus -20.4655 21.341 71.9991
lradius 47.8439
lwrist 17.0632
lhand -32.3925 9.39685
lfingers 7.12502
lthumb -5.62773 39.3021
rfemur -83.9094 1.79198 29.2347
rtibia 92.4586
rfoot -21.2823 20.5402
rtoes 43.8208
lfemur -77.7215 24.2331 -6.46394
ltibia 80.5264
lfoot -11.8342 20.8366
ltoes 53.287
833
root 2.8029 13.3365 22.9047 24.5248 65.4905 -3.63212
lowerback 37.8157 -1.00041 0.927658
upperback 14.2344 -0.0401366 -6.38483
thorax -3.10133 0.801015 -7.24892
lowerneck -8.19604 -5.81434 -1.57369
upperneck -1.20491 -7.39379 -6.39312
head 0.807267 -3.73098 -1.96496
rclavicle 9.54166e-014 -8.98507e-014
rhumerus -47.6901 44.2312 -58.8483
rradius 104.871
rwrist -40.1167
rhand -29.2847 -37.0693
rfingers 7.12502
rthumb -2.62667 -427.033
lclavicle 9.54166e-014 -8.98507e-014
lhumerus -20.2535 20.6775 71.9469
lradius 47.8824
lwrist 17.082
lhand -32.2748 9.42933
lfingers 7.12502
lthumb -5.51403 39.3376
rfemur -83.5288 2.40412 29.5855
rtibia 92.1991
rfoot -21.2706 20.2999
rtoes 44.0438
lfemur -79.9612 23.75 -7.83236
ltibia 81.5974
lfoot -11.6744 21.0807
ltoes 53.2443
834
root 2.80074 13.3494 22.9762 23.8673 65.4832 -4.33029
lowerback 37.8787 -0.815428 1.25436
upperback 14.241 0.28853 -6.41714
thorax -3.07766 0.973477 -7.5754
lowerneck -8.07326 -5.95531 -1.11329
upperneck -1.13233 -7.63547 -6.33007
head 0.788303 -3.85576 -2.02574
rclavicle 2.06736e-014 -4.85035e-014
rhumerus -48.5092 43.6224 -59.8295
rradius 104.794
rwrist -39.974
rhand -29.2485 -36.9284
rfingers 7.12502
rthumb -2.59168 -426.892
lclavicle 2.06736e-014 -4.85035e-014
lhumerus -20.0006 19.9122 71.8718
lradius 47.8872
lwrist 17.0762
lhand -32.1611 9.47368
lfingers 7.12502
lthumb -5.40427 39.3848
rfemur -83.1363 2.95595 30.0236
rtibia 91.9428
rfoot -21.3779 19.9441
rtoes 44.2117
lfemur -82.1102 23.1773 -9.17242
ltibia 82.5484
lfoot -11.4033 21.3708
ltoes 53.2117
835
root 2.79938 13.3609 23.0483 23.2363 65.4489 -4.98942
lowerback 37.923 -0.616274 1.50173
upperback 14.2517 0.610351 -6.42151
thorax -3.03914 1.13889 -7.82659
lowerneck -7.96091 -6.08767 -0.72472
upperneck -1.06443 -7.85681 -6.26334
head 0.772035 -3.96952 -2.07272
rclavicle -8.74653e-015 -3.45885e-014
rhumerus -49.2358 43.1001 -60.7243
rradius 104.717
rwrist -39.8337
rhand -29.2361 -36.8432
rfingers 7.12502
rthumb -2.57973 -426.807
lclavicle -8.74653e-015 -3.45885e-014
lhumerus -19.7607 19.2434 71.8106
lradius 47.8765
lwrist 17.0421
lhand -32.0633 9.54177
lfingers 7.12502
lthumb -5.30988 39.4552
rfemur -82.7114 3.45023 30.5231
rtibia 91.684
rfoot -21.5715 19.5467
rtoes 44.3574
lfemur -84.1418 22.5202 -10.4563
ltibia 83.3826
lfoot -11.0036 21.6576
ltoes 53.1861
836
root 2.79873 13.3708 23.1212 22.6285 65.3926 -5.60875
lowerback 37.9499 -0.407986 1.65261
upperback 14.2683 0.914322 -6.38639
thorax -2.98716 1.29076 -7.97631
lowerneck -7.86149 -6.20055 -0.430151
upperneck -1.00168 -8.04107 -6.19956
head 0.760282 -4.06385 -2.10401
rclavicle 6.36111e-015 4.07509e-015
rhumerus -49.8397 42.7103 -61.5017
rradius 104.638
rwrist -39.6835
rhand -29.2475 -36.8023
rfingers 7.12502
rthumb -2.59077 -426.766
lclavicle 6.36111e-015 4.07509e-015
lhumerus -19.5445 18.7353 71.7723
lradius 47.8571
lwrist 16.9987
lhand -31.9573 9.61862
lfingers 7.12502
lthumb -5.20755 39.5346
rfemur -82.2562 3.88956 31.0629
rtibia 91.4238
rfoot -21.7985 19.1725
rtoes 44.5673
lfemur -86.0568 21.7914 -11.6828
ltibia 84.1073
lfoot -10.4144 21.8997
ltoes 53.0805
